HIERARCHY
ROOT Hips
{
	OFFSET 0.000000 0.000000 0.000000
	CHANNELS 6 Xposition Yposition Zposition Xrotation Yrotation Zrotation
	JOINT LeftUpLeg_virtual
	{
		OFFSET 0.000000 0.000000 0.000000
		CHANNELS 3 Xrotation Yrotation Zrotation
		JOINT LeftUpLeg
		{
			OFFSET 13.026900 -6.336304 -1.092800
			CHANNELS 3 Xrotation Yrotation Zrotation
			JOINT LeftLeg
			{
				OFFSET 0.524474 -46.096886 9.782700
				CHANNELS 3 Xrotation Yrotation Zrotation
				JOINT LeftFoot
				{
					OFFSET -0.524474 -53.427422 -12.948200
					CHANNELS 3 Xrotation Yrotation Zrotation
					JOINT LeftToeBase
					{
						OFFSET 0.192200 -14.009700 16.364100
						CHANNELS 3 Xrotation Yrotation Zrotation
						JOINT LeftToe_End
						{
							OFFSET -1.784700 -0.561700 9.474800
							CHANNELS 3 Xrotation Yrotation Zrotation
							End Site
							{
								OFFSET 0 0 0
							}
						}
					}
				}
			}
		}
	}
	JOINT RightUpLeg_virtual
	{
		OFFSET 0.000000 0.000000 0.000000
		CHANNELS 3 Xrotation Yrotation Zrotation
		JOINT RightUpLeg
		{
			OFFSET -12.883000 -6.336304 -1.092800
			CHANNELS 3 Xrotation Yrotation Zrotation
			JOINT RightLeg
			{
				OFFSET -0.524587 -46.096825 9.782800
				CHANNELS 3 Xrotation Yrotation Zrotation
				JOINT RightFoot
				{
					OFFSET 0.524587 -53.427383 -12.948300
					CHANNELS 3 Xrotation Yrotation Zrotation
					JOINT RightToeBase
					{
						OFFSET -0.192200 -14.009700 16.364100
						CHANNELS 3 Xrotation Yrotation Zrotation
						JOINT RightToe_End
						{
							OFFSET 1.784700 -0.561700 9.474800
							CHANNELS 3 Xrotation Yrotation Zrotation
							End Site
							{
								OFFSET 0 0 0
							}
						}
					}
				}
			}
		}
	}
	JOINT Spine_virtual
	{
		OFFSET 0.000000 0.000000 0.000000
		CHANNELS 3 Xrotation Yrotation Zrotation
		JOINT Spine
		{
			OFFSET 0.072000 7.257294 -0.789700
			CHANNELS 3 Xrotation Yrotation Zrotation
			JOINT Spine1
			{
				OFFSET 0.000000 12.508769 -0.658067
				CHANNELS 3 Xrotation Yrotation Zrotation
				JOINT Spine1_split
				{
					OFFSET 0.000000 12.508769 -0.658067
					CHANNELS 3 Xrotation Yrotation Zrotation
					JOINT Spine2
					{
						OFFSET 0.000000 12.508769 -0.658067
						CHANNELS 3 Xrotation Yrotation Zrotation
						JOINT Neck_virtual
						{
							OFFSET 0.000000 0.000000 0.000000
							CHANNELS 3 Xrotation Yrotation Zrotation
							JOINT Neck
							{
								OFFSET 0.000000 14.033295 7.520400
								CHANNELS 3 Xrotation Yrotation Zrotation
								JOINT Head
								{
									OFFSET 0.000000 8.198502 5.703100
									CHANNELS 3 Xrotation Yrotation Zrotation
									JOINT HeadTop_End
									{
										OFFSET 0.000000 17.760803 13.332701
										CHANNELS 3 Xrotation Yrotation Zrotation
										End Site
										{
											OFFSET 0 0 0
										}
									}
								}
							}
						}
						JOINT LeftShoulder_virtual
						{
							OFFSET 0.000000 0.000000 0.000000
							CHANNELS 3 Xrotation Yrotation Zrotation
							JOINT LeftShoulder
							{
								OFFSET 6.292450 5.785301 -0.669000
								CHANNELS 3 Xrotation Yrotation Zrotation
								JOINT LeftShoulder_split
								{
									OFFSET 6.292450 5.785301 -0.669000
									CHANNELS 3 Xrotation Yrotation Zrotation
									JOINT LeftArm
									{
										OFFSET 13.907140 -6.093903 1.965100
										CHANNELS 3 Xrotation Yrotation Zrotation
										JOINT LeftForeArm
										{
											OFFSET 34.140198 0.000000 0.000000
											CHANNELS 3 Xrotation Yrotation Zrotation
											JOINT LeftHand
											{
												OFFSET 40.960209 0.000000 0.000000
												CHANNELS 3 Xrotation Yrotation Zrotation
												End Site
												{
													OFFSET 0 0 0
												}
											}
										}
									}
								}
							}
						}
						JOINT RightShoulder_virtual
						{
							OFFSET 0.000000 0.000000 0.000000
							CHANNELS 3 Xrotation Yrotation Zrotation
							JOINT RightShoulder
							{
								OFFSET -6.292450 5.785301 -0.669000
								CHANNELS 3 Xrotation Yrotation Zrotation
								JOINT RightShoulder_split
								{
									OFFSET -6.292450 5.785301 -0.669000
									CHANNELS 3 Xrotation Yrotation Zrotation
									JOINT RightArm
									{
										OFFSET -13.907140 -6.093903 1.965100
										CHANNELS 3 Xrotation Yrotation Zrotation
										JOINT RightForeArm
										{
											OFFSET -34.140198 0.000000 0.000000
											CHANNELS 3 Xrotation Yrotation Zrotation
											JOINT RightHand
											{
												OFFSET -40.960209 0.000000 0.000000
												CHANNELS 3 Xrotation Yrotation Zrotation
												End Site
												{
													OFFSET 0 0 0
												}
											}
										}
									}
								}
							}
						}
					}
				}
			}
		}
	}
}
MOTION
Frames: 5
Frame Time: 0.03333333
6.120072 112.469109 -6.756235 0.000000 0.000000 0.000000 2.700425 2.180327 1.634712 -15.619352 6.876301 8.909755 24.176383 0.457973 1.860801 -8.556410 4.762446 -14.695885 -0.288128 -4.389819 0.322379 0.000000 0.000000 0.000000 2.854008 2.329241 1.677442 -16.868405 1.269565 -3.713727 26.756392 4.219725 -2.300682 -13.587364 -5.668684 10.209672 0.747106 2.554466 -3.580064 0.000000 0.000000 0.000000 2.589233 4.588134 1.133365 -0.931859 -3.678670 0.171958 -0.741895 -0.315197 0.640563 0.145210 -0.195493 0.010059 0.000000 0.000000 0.000000 -0.039661 1.765672 0.732902 1.981510 4.188230 1.102599 -9.246205 -21.771219 -5.026221 0.000000 0.000000 0.000000 -1.123067 0.344449 0.331646 -0.896620 -11.123344 -9.405486 -2.201107 1.177888 -2.468187 22.534121 -21.312895 -67.965805 -0.881676 -21.690854 -0.495006 0.000000 0.000000 0.000000 -0.395569 0.619229 0.933185 -2.244179 0.677800 11.785357 -6.976149 -0.747495 0.106527 10.250516 28.951430 66.167758 -6.710786 11.947397 3.234593 0.000000 0.000000 0.000000 
6.219151 112.588943 -6.757948 0.000000 0.000000 0.000000 2.641458 2.206995 1.620713 -15.536640 6.413905 8.804896 23.835248 0.515686 1.859301 -8.818521 4.880416 -14.274651 0.011344 -4.384108 0.301245 0.000000 0.000000 0.000000 2.777107 2.078727 1.644355 -16.537937 1.272335 -3.660679 26.530586 4.143867 -2.359647 -13.295563 -5.655823 10.138670 -0.054199 2.602732 -3.507231 0.000000 0.000000 0.000000 2.618418 4.455313 1.066583 -1.042785 -3.619299 0.189594 -0.763358 -0.265627 0.638937 0.135847 -0.131942 0.020445 0.000000 0.000000 0.000000 -0.022408 1.806713 0.732148 1.946696 4.183931 1.243143 -9.650394 -21.485405 -5.283254 0.000000 0.000000 0.000000 -1.070965 0.393279 0.362833 -0.885583 -11.128249 -9.500236 -2.268808 1.059812 -2.541456 22.424172 -21.367221 -67.952965 -0.951234 -21.578564 -0.581284 0.000000 0.000000 0.000000 -0.391559 0.662014 0.919091 -2.288257 0.861979 11.794694 -6.500710 -0.639336 0.065061 10.169016 28.992196 66.059199 -6.682958 11.895247 3.267575 0.000000 0.000000 0.000000 
6.326941 112.700836 -6.736372 0.000000 0.000000 0.000000 2.487745 2.025734 1.538751 -15.501861 6.109698 8.719620 23.603804 0.586515 1.903540 -9.054970 5.029115 -14.095529 0.626251 -4.382786 0.295148 0.000000 0.000000 0.000000 2.714549 1.677162 1.535629 -16.170673 1.132853 -3.575721 26.367375 4.008472 -2.430125 -13.318793 -5.302940 10.183925 -0.429422 2.699143 -3.677416 0.000000 0.000000 0.000000 2.560957 4.224481 0.887192 -1.048216 -3.428304 0.214770 -0.743946 -0.181031 0.643611 0.134818 -0.121889 0.004875 0.000000 0.000000 0.000000 0.065283 1.885643 0.731558 1.972239 4.152122 1.474379 -9.955396 -20.996833 -5.594757 0.000000 0.000000 0.000000 -1.014096 0.474938 0.388750 -0.914257 -11.147121 -9.581780 -2.232206 1.054678 -2.536677 21.942370 -21.334287 -68.106371 -0.986158 -21.471822 -0.579367 0.000000 0.000000 0.000000 -0.355653 0.734950 0.910254 -2.317389 0.984520 11.814974 -6.061466 -0.608210 0.058523 10.275571 29.035988 65.766956 -6.577303 11.864474 3.156234 0.000000 0.000000 0.000000 
6.435765 112.679115 -6.776628 0.000000 0.000000 0.000000 2.307793 1.632710 1.432530 -15.475834 6.015294 8.590040 23.720253 0.630851 2.018956 -9.160440 5.178295 -14.178626 0.844078 -4.409754 0.393909 0.000000 0.000000 0.000000 2.707586 1.212558 1.412881 -16.016085 0.847301 -3.532632 26.314091 3.796305 -2.474484 -13.636453 -4.796421 10.259289 -0.071411 2.823295 -4.088241 0.000000 0.000000 0.000000 2.453011 3.948385 0.728081 -0.919226 -3.140851 0.211649 -0.656679 -0.069267 0.648963 0.142702 -0.170141 -0.013603 0.000000 0.000000 0.000000 0.223942 1.989916 0.726438 2.040322 4.096888 1.776828 -10.114688 -20.294133 -5.882764 0.000000 0.000000 0.000000 -0.958129 0.584590 0.400790 -0.985529 -11.188795 -9.648022 -2.141795 1.068098 -2.499665 21.186774 -21.270604 -68.290198 -1.017335 -21.421078 -0.528506 0.000000 0.000000 0.000000 -0.282221 0.826070 0.901034 -2.313773 1.071373 11.822298 -5.695700 -0.604883 0.076767 10.492506 29.131221 65.400127 -6.427388 11.886296 2.935629 0.000000 0.000000 0.000000 
6.598259 112.576874 -6.868967 0.000000 0.000000 0.000000 2.192902 1.097684 1.325727 -15.494381 6.095052 8.385138 24.257034 0.726007 2.203426 -9.257790 5.407078 -14.318738 0.447504 -4.466758 0.576624 0.000000 0.000000 0.000000 2.792993 0.709256 1.301020 -16.213553 0.460760 -3.551807 26.269684 3.573774 -2.454946 -13.890020 -4.371257 10.495799 0.567390 2.940621 -4.674195 0.000000 0.000000 0.000000 2.375738 3.687967 0.641374 -0.659182 -2.815224 0.160378 -0.505901 0.050148 0.648940 0.125239 -0.251580 -0.012079 0.000000 0.000000 0.000000 0.448673 2.104034 0.708060 2.075610 4.019741 2.119170 -10.087346 -19.378357 -6.062327 0.000000 0.000000 0.000000 -0.887114 0.707590 0.400250 -1.090011 -11.255895 -9.713904 -1.987482 1.043518 -2.574650 20.272220 -21.251572 -68.376607 -1.050212 -21.456636 -0.439089 0.000000 0.000000 0.000000 -0.178154 0.923128 0.891702 -2.288576 1.198881 11.788700 -5.416933 -0.614799 0.065179 10.696139 29.325537 65.063310 -6.284542 11.975823 2.653331 0.000000 0.000000 0.000000 
